PathFileType	4	(X/Y/Z)	C:/Users/opensim2020/Desktop/walking_exp_matlab/subject06_walking20_straight_02.trc																																																																																																																															
DataRate	CameraRate	NumFrames	NumMarkers	Units	OrigDataRate	OrigDataStartFrame	OrigNumFrames																																																																																																																											
100	100	4	43	mm	100	1268	105																																																																																																																											
Frame#	Time	LFHD			RFHD			LBHD			RBHD			C7			T10			CLAV			STRN			RBAK			LSHO			LUPA			LELB			LFRM			LWRA			LWRB			LFIN			RSHO			RUPA			RELB			RFRM			RWRA			RWRB			RFIN			LASI			RASI			LPSI			RPSI			LTHI			LKNE			LTIB			LANK			LHEE			LTOE			RTHI			RKNE			RTIB			RANK			RHEE			RTOE			*39			*40			*41			*42		
		X1	Y1	Z1	X2	Y2	Z2	X3	Y3	Z3	X4	Y4	Z4	X5	Y5	Z5	X6	Y6	Z6	X7	Y7	Z7	X8	Y8	Z8	X9	Y9	Z9	X10	Y10	Z10	X11	Y11	Z11	X12	Y12	Z12	X13	Y13	Z13	X14	Y14	Z14	X15	Y15	Z15	X16	Y16	Z16	X17	Y17	Z17	X18	Y18	Z18	X19	Y19	Z19	X20	Y20	Z20	X21	Y21	Z21	X22	Y22	Z22	X23	Y23	Z23	X24	Y24	Z24	X25	Y25	Z25	X26	Y26	Z26	X27	Y27	Z27	X28	Y28	Z28	X29	Y29	Z29	X30	Y30	Z30	X31	Y31	Z31	X32	Y32	Z32	X33	Y33	Z33	X34	Y34	Z34	X35	Y35	Z35	X36	Y36	Z36	X37	Y37	Z37	X38	Y38	Z38	X39	Y39	Z39	X40	Y40	Z40	X41	Y41	Z41	X42	Y42	Z42	X43	Y43	Z43
																																																																																																																																		
27	0.26	-758.68054	1649.11255	-1518.33228	-761.15802	1636.84607	-1387.13599	-891.35925	1592.94641	-1521.89905	-892.32465	1586.01868	-1393.5658	-890.38251	1432.24121	-1465.67566	-916.61102	1103.30908	-1448.74463	-776.25446	1358.57605	-1460.42407	-732.9408	1183.75085	-1461.16919	-959.55542	1260.76624	-1382.98657	-829.95508	1385.88062	-1624.65491	-876.36975	1190.75366	-1692.21082	-915.74536	1084.31763	-1697.97791	-938.72729	936.30273	-1719.73083	-916.91162	807.1272	-1677.91174	-976.21783	823.50513	-1715.97961	-968.4494	731.39087	-1710.92554	-829.36908	1392.16602	-1301.57593	-868.76691	1197.78601	-1208.95178	-854.68384	1077.4884	-1194.39514	-807.29388	968.3277	-1181.04395	-706.41302	862.27936	-1221.66296	-756.62158	841.33862	-1181.51636	-694.12006	786.57416	-1181.67969	-726.31226	957.99982	-1550.52161	-749.32623	942.62079	-1335.39136	-888.66199	977.93176	-1535.34937	-897.10748	965.43689	-1368.45776	-720.32233	656.18518	-1631.7373	-674.9798	500.86234	-1604.54871	-670.36371	241.69781	-1608.99658	-665.39044	68.78758	-1571.77563	-707.93384	53.4768	-1529.64819	-520.74536	44.97441	-1557.03064	-819.68256	597.08038	-1299.94604	-820.57611	470.79126	-1321.48438	-1026.20349	315.02765	-1352.03064	-1177.09082	217.39015	-1405.35999	-1205.5658	240.69063	-1455.8064	-1159.9292	60.20256	-1397.04968	-860.8941	1685.38586	-1460.94836	NaN	NaN	NaN	NaN	NaN	NaN	NaN	NaN	NaN
28	0.27	-744.50085	1651.07593	-1519.65137	-747.54913	1639.3761	-1388.43274	-877.48077	1595.17346	-1523.68152	-878.74414	1588.703	-1395.11279	-876.2951	1434.36353	-1466.77734	-901.65173	1105.33362	-1449.66577	-762.15521	1361.04565	-1461.09583	-718.13953	1186.3396	-1461.59558	-945.39288	1262.67395	-1383.89917	-814.9646	1387.80811	-1625.53064	-858.44702	1191.84509	-1693.68018	-896.33496	1085.00769	-1699.89014	-917.25269	936.77899	-1721.87695	-894.85516	807.89972	-1679.52612	-953.25342	823.2887	-1718.4375	-945.1084	731.54022	-1713.21143	-816.01428	1394.32373	-1302.38867	-855.61908	1199.66602	-1210.20142	-842.97357	1079.01892	-1196.3468	-798.1825	968.43427	-1182.77222	-700.30048	858.84692	-1222.34436	-751.4895	839.73926	-1182.41614	-690.92761	782.87732	-1182.08044	-711.40851	960.44525	-1551.9624	-735.02661	944.39063	-1336.59412	-873.50793	980.1991	-1536.58911	-882.71954	966.96124	-1369.80579	-709.70618	655.87866	-1631.70544	-666.27936	500.43524	-1604.10376	-665.8869	241.71606	-1607.70398	-664.62347	68.9738	-1570.604	-707.69983	53.72997	-1528.99353	-520.36676	44.12252	-1555.0918	-798.57819	598.12054	-1301.02527	-795.38818	471.96735	-1322.26465	-999.45343	316.93243	-1351.23999	-1152.65894	222.2578	-1403.97229	-1181.50269	246.02594	-1454.12927	-1137.72546	63.83364	-1397.70264	-846.92645	1687.76038	-1462.82593	NaN	NaN	NaN	NaN	NaN	NaN	NaN	NaN	NaN
29	0.28	-730.39124	1653.14038	-1520.83398	-733.87457	1641.96704	-1389.59131	-863.41437	1597.44141	-1525.10339	-865.15216	1591.50684	-1396.55188	-862.16815	1436.7019	-1467.74402	-886.79993	1107.52148	-1450.72107	-748.10266	1363.53333	-1461.66626	-703.57404	1188.93396	-1462.0177	-931.51733	1264.87012	-1384.86292	-800.3465	1389.90295	-1626.29907	-840.1745	1192.93616	-1694.87549	-876.67096	1085.70251	-1701.76819	-895.35693	937.23358	-1723.97729	-871.91766	808.755	-1680.91064	-930.05658	823.6665	-1721.52588	-920.68903	731.8075	-1715.99084	-802.60474	1396.44019	-1303.00854	-842.80865	1201.52917	-1211.47668	-831.4165	1080.49817	-1198.00635	-789.48285	968.48865	-1184.31665	-694.82013	855.53992	-1222.89514	-746.46356	838.31488	-1183.453	-687.89233	779.3736	-1182.41748	-696.72791	962.5462	-1553.09253	-721.71143	946.32306	-1337.84155	-858.31818	982.54694	-1538.28174	-868.42749	968.65906	-1371.47791	-699.13251	655.83618	-1631.4425	-658.71033	499.7955	-1603.7063	-663.23865	241.62112	-1606.82385	-664.03577	69.1577	-1569.55908	-707.55719	54.07673	-1528.27954	-520.00287	43.40099	-1553.74744	-777.44696	599.49829	-1302.39099	-770.59174	473.61047	-1323.19824	-973.15875	318.74994	-1350.28723	-1128.03088	226.31093	-1403.01001	-1159.34766	248.77771	-1451.60852	-1106.5387	68.46194	-1397.91113	-832.91217	1690.25977	-1464.50525	NaN	NaN	NaN	NaN	NaN	NaN	NaN	NaN	NaN
30	0.29	-716.23047	1655.29395	-1521.91138	-720.20148	1644.62842	-1390.64197	-849.34808	1599.72571	-1526.33411	-851.52386	1594.28174	-1397.828	-848.1308	1439.04639	-1468.56458	-872.18762	1109.80151	-1451.86047	-734.14551	1366.04688	-1462.12866	-689.17578	1191.47156	-1462.43909	-917.62689	1267.1167	-1385.85938	-785.77026	1392.12598	-1626.97302	-822.12964	1194.21033	-1696.05005	-856.9422	1086.48608	-1703.55566	-873.29327	938.10809	-1726.35681	-848.34088	809.62494	-1682.65869	-905.8656	823.82404	-1724.27991	-895.32422	732.09943	-1718.505	-789.20862	1398.55652	-1303.60547	-830.01044	1203.46692	-1212.6189	-819.86493	1081.9137	-1199.4679	-780.97363	968.63446	-1185.72644	-689.59595	852.37787	-1223.45398	-742.02997	837.17804	-1184.13831	-685.56689	776.19128	-1183.04248	-682.0415	964.25702	-1554.06384	-707.84888	948.61932	-1338.65637	-843.26599	985.03107	-1540.1676	-854.58667	970.87323	-1373.26367	-688.90997	656.24329	-1631.32288	-652.1723	499.27588	-1603.73901	-661.81494	241.52879	-1606.24438	-663.72858	69.49127	-1568.94592	-707.44208	54.27635	-1527.71167	-519.85876	42.91065	-1552.80273	-756.89215	601.45325	-1303.5708	-746.28754	475.96243	-1324.29065	-947.26422	320.94098	-1349.56421	-1101.26392	227.43738	-1401.33997	-1135.50879	249.15062	-1449.17517	-1072.81213	71.40614	-1398.0332	-818.94543	1692.73267	-1466.02124	NaN	NaN	NaN	NaN	NaN	NaN	NaN	NaN	NaN
